<svg xmlns="http://www.w3.org/2000/svg" viewBox="0 0 1200 675" role="img" aria-label="Premium abstract agent review cover">
  <defs>
    <linearGradient id="bg" x1="0" y1="0" x2="1" y2="1">
      <stop offset="0" stop-color="#120d16"/>
      <stop offset="0.5" stop-color="#201923"/>
      <stop offset="1" stop-color="#0d1118"/>
    </linearGradient>
    <linearGradient id="accent" x1="0" y1="0" x2="1" y2="0">
      <stop offset="0" stop-color="#ff5d86"/>
      <stop offset="0.55" stop-color="#ffd36b"/>
      <stop offset="1" stop-color="#f8f1dc"/>
    </linearGradient>
    <filter id="glow" x="-45%" y="-45%" width="190%" height="190%">
      <feGaussianBlur stdDeviation="8" result="blur"/>
      <feMerge>
        <feMergeNode in="blur"/>
        <feMergeNode in="SourceGraphic"/>
      </feMerge>
    </filter>
    <pattern id="scan" width="1" height="10" patternUnits="userSpaceOnUse">
      <rect width="1" height="1" fill="#fff" fill-opacity="0.06"/>
    </pattern>
  </defs>
  <rect width="1200" height="675" fill="url(#bg)"/>
  <rect width="1200" height="675" fill="url(#scan)" opacity="0.7"/>
  <g transform="translate(600 338)" fill="none" stroke="url(#accent)" filter="url(#glow)">
    <circle r="178" stroke-width="3" stroke-opacity="0.72"/>
    <circle r="112" stroke-width="2" stroke-opacity="0.45" stroke-dasharray="12 16"/>
    <circle r="54" stroke-width="2" stroke-opacity="0.75"/>
    <path d="M-210 0H-78M78 0H210M0-210V-78M0 78V210" stroke-width="2.4" stroke-opacity="0.82"/>
    <path d="M-125-125 125 125M125-125-125 125" stroke-width="1.3" stroke-opacity="0.28"/>
  </g>
  <g fill="#17121a" stroke="#f8f1dc" stroke-opacity="0.16">
    <rect x="86" y="88" width="278" height="120" rx="18"/>
    <rect x="836" y="88" width="278" height="120" rx="18"/>
    <rect x="86" y="466" width="278" height="120" rx="18"/>
    <rect x="836" y="466" width="278" height="120" rx="18"/>
  </g>
  <g stroke="#f8f1dc" stroke-opacity="0.2" stroke-width="1.4">
    <path d="M132 132h184M132 166h112M882 132h178M882 166h96M132 510h162M132 544h132M882 510h170M882 544h106"/>
  </g>
  <g fill="url(#accent)" filter="url(#glow)">
    <circle cx="600" cy="338" r="8"/>
    <circle cx="422" cy="338" r="5"/>
    <circle cx="778" cy="338" r="5"/>
    <circle cx="600" cy="160" r="5"/>
    <circle cx="600" cy="516" r="5"/>
  </g>
  <path d="M76 620h1048" stroke="url(#accent)" stroke-width="2" stroke-opacity="0.46"/>
</svg>
