<svg xmlns="http://www.w3.org/2000/svg" viewBox="0 0 1200 675" role="img" aria-label="Premium abstract AI diagram MCP cover">
  <defs>
    <linearGradient id="bg" x1="0" y1="0" x2="1" y2="1">
      <stop offset="0" stop-color="#0a0f1f"/>
      <stop offset="0.52" stop-color="#111a2e"/>
      <stop offset="1" stop-color="#09111a"/>
    </linearGradient>
    <linearGradient id="line" x1="0" y1="0" x2="1" y2="1">
      <stop offset="0" stop-color="#9ee7ff"/>
      <stop offset="0.45" stop-color="#7c8cff"/>
      <stop offset="1" stop-color="#e9f1ff"/>
    </linearGradient>
    <filter id="glow" x="-45%" y="-45%" width="190%" height="190%">
      <feGaussianBlur stdDeviation="7" result="blur"/>
      <feMerge>
        <feMergeNode in="blur"/>
        <feMergeNode in="SourceGraphic"/>
      </feMerge>
    </filter>
    <pattern id="dots" width="36" height="36" patternUnits="userSpaceOnUse">
      <circle cx="2" cy="2" r="1.3" fill="#dce8ff" fill-opacity="0.12"/>
    </pattern>
  </defs>
  <rect width="1200" height="675" fill="url(#bg)"/>
  <rect width="1200" height="675" fill="url(#dots)"/>
  <path d="M0 122H1200M0 338H1200M0 554H1200M152 0V675M462 0V675M772 0V675M1082 0V675" stroke="#dce8ff" stroke-opacity="0.045"/>
  <g fill="#0e1728" stroke="#dce8ff" stroke-opacity="0.2" stroke-width="1.4">
    <rect x="106" y="222" width="204" height="112" rx="18"/>
    <rect x="412" y="122" width="238" height="132" rx="20"/>
    <rect x="446" y="414" width="276" height="122" rx="22"/>
    <rect x="838" y="230" width="252" height="148" rx="22"/>
  </g>
  <g fill="none" stroke="url(#line)" stroke-width="3" stroke-linecap="round" filter="url(#glow)">
    <path d="M310 278C374 278 374 188 412 188"/>
    <path d="M532 254V414"/>
    <path d="M650 188C752 188 742 304 838 304"/>
    <path d="M722 476C792 476 804 334 838 334"/>
  </g>
  <g fill="#dce8ff" filter="url(#glow)">
    <circle cx="310" cy="278" r="7"/>
    <circle cx="412" cy="188" r="7"/>
    <circle cx="532" cy="254" r="7"/>
    <circle cx="532" cy="414" r="7"/>
    <circle cx="650" cy="188" r="7"/>
    <circle cx="838" cy="304" r="7"/>
    <circle cx="722" cy="476" r="7"/>
    <circle cx="838" cy="334" r="7"/>
  </g>
  <g stroke="#dce8ff" stroke-opacity="0.22" stroke-width="1.5">
    <path d="M144 260h126M144 294h78M456 164h150M456 200h106M890 276h148M890 314h92M496 460h176M496 496h118"/>
  </g>
  <path d="M82 596h1036" stroke="#dce8ff" stroke-opacity="0.18" stroke-width="2"/>
</svg>
