<svg xmlns="http://www.w3.org/2000/svg" viewBox="0 0 1200 675" role="img" aria-label="Premium abstract GitHub profile cover">
  <defs>
    <linearGradient id="bg" x1="0" y1="0" x2="1" y2="1">
      <stop offset="0" stop-color="#0d0f13"/>
      <stop offset="0.52" stop-color="#1b2028"/>
      <stop offset="1" stop-color="#0b0d10"/>
    </linearGradient>
    <linearGradient id="metal" x1="0" y1="0" x2="1" y2="1">
      <stop offset="0" stop-color="#f9fbff"/>
      <stop offset="0.38" stop-color="#b8c4d8"/>
      <stop offset="0.7" stop-color="#f1d68a"/>
      <stop offset="1" stop-color="#aeb7c5"/>
    </linearGradient>
    <filter id="glow" x="-40%" y="-40%" width="180%" height="180%">
      <feGaussianBlur stdDeviation="6" result="blur"/>
      <feMerge>
        <feMergeNode in="blur"/>
        <feMergeNode in="SourceGraphic"/>
      </feMerge>
    </filter>
    <pattern id="mesh" width="72" height="72" patternUnits="userSpaceOnUse">
      <path d="M72 0H0V72" fill="none" stroke="#f9fbff" stroke-opacity="0.045"/>
      <path d="M0 72 72 0" fill="none" stroke="#f9fbff" stroke-opacity="0.025"/>
    </pattern>
  </defs>
  <rect width="1200" height="675" fill="url(#bg)"/>
  <rect width="1200" height="675" fill="url(#mesh)"/>
  <g transform="translate(600 338)" filter="url(#glow)">
    <path d="M0-190 164-95 164 95 0 190-164 95-164-95Z" fill="#121821" stroke="url(#metal)" stroke-width="3" stroke-opacity="0.8"/>
    <path d="M0-118 102-59 102 59 0 118-102 59-102-59Z" fill="none" stroke="url(#metal)" stroke-width="2" stroke-opacity="0.5"/>
    <path d="M0-190V190M-164-95 164 95M164-95-164 95" stroke="url(#metal)" stroke-width="1.6" stroke-opacity="0.35"/>
  </g>
  <g fill="#121821" stroke="#f9fbff" stroke-opacity="0.16">
    <rect x="92" y="100" width="296" height="92" rx="18"/>
    <rect x="812" y="100" width="296" height="92" rx="18"/>
    <rect x="92" y="480" width="296" height="92" rx="18"/>
    <rect x="812" y="480" width="296" height="92" rx="18"/>
  </g>
  <g stroke="#f9fbff" stroke-opacity="0.19" stroke-width="1.5">
    <path d="M138 134h202M138 164h126M858 134h198M858 164h104M138 514h184M138 544h132M858 514h204M858 544h116"/>
  </g>
  <g fill="url(#metal)" filter="url(#glow)">
    <rect x="476" y="596" width="248" height="3" rx="1.5"/>
    <circle cx="600" cy="338" r="9"/>
  </g>
</svg>
